<svg width="57" height="57" viewBox="0 0 57 57" fill="none" xmlns="http://www.w3.org/2000/svg">
<g clip-path="url(#clip0_1_101)">
<path d="M36.7691 27.8192C36.7691 32.3792 33.0764 36.0842 28.5316 36.0842C23.9867 36.0842 20.294 32.3792 20.294 27.8192C20.294 23.2592 23.9867 19.5542 28.5316 19.5542C33.0764 19.5542 36.7691 23.2592 36.7691 27.8192Z" fill="#FFCB05"/>
<path d="M6.15449 34.6906C2.74585 34.6748 -0.0157745 31.8723 6.2612e-06 28.4839C0.015787 25.0639 2.82476 22.3089 6.28074 22.3406C9.64203 22.3723 12.3879 25.1748 12.3721 28.5473C12.3563 31.9514 9.54735 34.7064 6.15449 34.6906Z" fill="#008FD5"/>
<path d="M50.8613 22.3248C54.2384 22.3248 56.9842 25.1114 56.9842 28.4681C56.9842 31.8089 54.1753 34.6273 50.8455 34.6273C47.4684 34.6273 44.7068 31.8406 44.7226 28.4206C44.7226 25.0164 47.4684 22.3089 50.8771 22.3248" fill="#008FD5"/>
<path d="M28.6262 -0.000211716C32.0191 0.031455 34.7807 2.81812 34.7334 6.17479C34.7018 9.54729 31.8771 12.3498 28.5473 12.3023C25.1229 12.2548 22.4244 9.48396 22.4718 6.03229C22.5033 2.65979 25.2492 -0.0318784 28.6262 -0.000211716Z" fill="#008FD5"/>
<path d="M28.5631 56.9998C25.2176 56.9998 22.5033 54.324 22.4875 50.9832C22.4875 47.5948 25.1703 44.8715 28.5316 44.8398C31.8455 44.8398 34.6071 47.5632 34.6229 50.8882C34.6545 54.2448 31.9244 56.9998 28.5631 56.9998Z" fill="#008FD5"/>
<path d="M12.3563 48.7509C10.1312 48.7509 8.31644 46.9459 8.33222 44.7293C8.34801 42.5284 10.147 40.7393 12.3247 40.7393C14.5341 40.7393 16.3488 42.5601 16.3331 44.7768C16.3331 46.9776 14.5341 48.7509 12.3405 48.7668" fill="#008FD5"/>
<path d="M45.0855 8.78769C45.0855 7.01436 46.4743 5.58936 48.2101 5.58936C49.946 5.58936 51.3821 7.01436 51.3821 8.75602C51.3821 10.5294 49.9934 11.9544 48.2417 11.9544C46.5058 11.9544 45.0855 10.5452 45.0855 8.78769Z" fill="#008FD5"/>
<path d="M14.6919 17.4801C13.1296 17.4801 11.8829 16.2292 11.8829 14.6776C11.8829 13.1417 13.1453 11.8592 14.6761 11.8434C16.2226 11.8276 17.5166 13.1259 17.5008 14.6934C17.5008 16.2609 16.2699 17.4801 14.6919 17.4801Z" fill="#008FD5"/>
<path d="M40.6196 38.7124C41.6927 38.7124 42.5291 39.5357 42.5449 40.5966C42.5606 41.6732 41.6927 42.5757 40.6354 42.5757C39.5939 42.5757 38.7259 41.7207 38.7101 40.6757C38.7101 39.5674 39.5307 38.7282 40.6196 38.7124Z" fill="#008FD5"/>
<path d="M37.0216 20.9794C36.6902 20.6469 36.3904 20.3302 36.1221 20.0452C38.8995 17.2585 41.7243 14.4402 44.5017 11.6377C44.7857 11.9227 45.1013 12.2552 45.4012 12.556C42.6238 15.3427 39.8148 18.161 37.0216 20.9794Z" fill="#0D1333"/>
<path d="M20.1835 36.1157C20.436 36.3691 20.7359 36.6857 21.0199 36.9866C19.5839 38.4432 18.1321 39.8999 16.6487 41.4041C16.3646 41.1032 16.049 40.7866 15.8123 40.5174C17.2641 39.0607 18.7159 37.6041 20.1993 36.1316" fill="#0D1333"/>
<path d="M18.211 17.2107C19.1262 18.1607 20.0573 19.1265 20.9726 20.0607C20.7043 20.3457 20.3729 20.6623 20.0889 20.9632C19.1736 20.0448 18.2425 19.0948 17.2799 18.0973C17.564 17.8282 17.8953 17.5115 18.2267 17.1948" fill="#0D1333"/>
<path d="M43.2866 27.8032H39.8148V29.1966H43.2866V27.8032Z" fill="#0D1333"/>
<path d="M18.4003 27.8032H14.9286V29.1966H18.4003V27.8032Z" fill="#0D1333"/>
<path d="M29.2101 39.8208H27.8688V43.3675H29.2101V39.8208Z" fill="#0D1333"/>
<path d="M29.2259 13.7593H27.8688V17.1951H29.2259V13.7593Z" fill="#0D1333"/>
<path d="M36.0905 36.8758C36.343 36.6383 36.6744 36.3375 36.99 36.0366C37.5581 36.6225 38.1105 37.2241 38.7101 37.8416C38.4261 38.095 38.1105 38.3958 37.7633 38.7125C37.2425 38.1425 36.6902 37.5408 36.0905 36.8916" fill="#0D1333"/>
</g>
<defs>
<clipPath id="clip0_1_101">
<rect width="57" height="57" fill="white"/>
</clipPath>
</defs>
</svg>
