<svg width="59" height="58" viewBox="0 0 59 58" fill="none" xmlns="http://www.w3.org/2000/svg">
<g clip-path="url(#clip0_1_89)">
<path d="M59 29C59 45.0163 45.7925 58 29.5 58C13.2075 58 0 45.0163 0 29C0 12.9837 13.2075 0 29.5 0C45.7925 0 59 12.9837 59 29Z" fill="#0D1333"/>
<path d="M48.9096 44.2425L48.765 36.029C48.7489 34.8443 47.2868 34.2599 46.4191 35.0971L43.9126 37.5611L37.116 30.8798C36.0877 29.8689 34.4006 29.8689 33.3723 30.8798C32.344 31.8906 32.344 33.5491 33.3723 34.56L40.1688 41.2414L37.6623 43.7055C36.8107 44.5426 37.4052 45.98 38.6103 46.0116L46.9815 46.1379C48.058 46.1537 48.9417 45.3008 48.9257 44.2267" fill="#FFCB05"/>
<path d="M25.6117 21.4972L18.8151 14.8158L21.3216 12.336C22.1732 11.4989 21.5787 10.0615 20.3736 10.0299L12.0025 9.90354C10.9259 9.88774 10.0422 10.7407 10.0743 11.799L10.2029 20.0125C10.219 21.2129 11.6811 21.7815 12.5487 20.9444L15.0553 18.4803L21.8519 25.1617C22.8802 26.1726 24.5673 26.1726 25.5956 25.1617C26.6239 24.1508 26.6239 22.4923 25.5956 21.4814" fill="#FFCB05"/>
<path d="M46.9815 9.91933L38.6264 10.0615C37.4213 10.0773 36.8268 11.5146 37.6784 12.3676L40.1849 14.8316L33.3883 21.513C32.36 22.5239 32.36 24.1824 33.3883 25.1933C34.4167 26.2042 36.1038 26.2042 37.1321 25.1933L43.9286 18.5119L46.4352 20.976C47.2868 21.8131 48.7489 21.2287 48.781 20.0441L48.9096 11.8148C48.9257 10.7565 48.0419 9.88774 46.9815 9.90353" fill="#008FD5"/>
<path d="M21.8679 30.8952L15.0714 37.5766L12.5487 35.1125C11.6972 34.2754 10.235 34.8598 10.219 36.0444L10.0904 44.2737C10.0743 45.332 10.9581 46.2008 12.0185 46.1692L20.3736 46.0428C21.5948 46.027 22.1732 44.5897 21.3216 43.7367L18.8151 41.2727L25.6117 34.5913C26.64 33.5804 26.64 31.9219 25.6117 30.911C24.5833 29.9001 22.8962 29.9001 21.8679 30.911" fill="#008FD5"/>
</g>
<defs>
<clipPath id="clip0_1_89">
<rect width="59" height="58" fill="white"/>
</clipPath>
</defs>
</svg>
