<svg width="70" height="60" viewBox="0 0 70 60" fill="none" xmlns="http://www.w3.org/2000/svg">
<g clip-path="url(#clip0_1_84)">
<path d="M40.5413 2.9785L35.4043 0L9.54474 15.004V44.996L35.4043 60L61.2797 44.996V15.004L52.9875 10.1938L40.5413 2.9785Z" fill="#0D1333"/>
<path d="M56.6183 19.4481L55.4292 17.3774L35.4043 28.9888L15.3794 17.3774L14.2061 19.4481L34.231 31.0594V52.7849H36.5934V31.0594L56.6183 19.4481Z" fill="#008FD5"/>
<path d="M69.3341 36.0922L62.453 29.4026C61.4541 28.431 59.7894 29.1477 59.7894 30.5334V34.611H48.786C47.1053 34.611 45.7576 35.9807 45.7576 37.6532C45.7576 39.3256 47.1212 40.6954 48.786 40.6954H59.7894V44.7888C59.7894 46.1745 61.4541 46.8913 62.453 45.9197L69.3341 39.23C70.222 38.3699 70.222 36.9523 69.3341 36.0763" fill="#FFCB05"/>
<path d="M21.1982 34.6269H10.1948V30.5334C10.1948 29.1477 8.53001 28.431 7.53114 29.4026L0.665912 36.1082C-0.221971 36.9683 -0.221971 38.3858 0.665912 39.2619L7.547 45.9515C8.54587 46.9231 10.2106 46.2064 10.2106 44.8207V40.7432H21.214C22.8947 40.7432 24.2424 39.3734 24.2424 37.7009C24.2424 36.0285 22.8788 34.6587 21.214 34.6587" fill="#008FD5"/>
</g>
<defs>
<clipPath id="clip0_1_84">
<rect width="70" height="60" fill="white"/>
</clipPath>
</defs>
</svg>
