<svg width="35" height="37" viewBox="0 0 35 37" fill="none" xmlns="http://www.w3.org/2000/svg">
<g clip-path="url(#clip0_1_468)">
<path d="M8.02787 22.3605V34.0186C8.06539 36.7707 5.1581 37.1911 3.05735 36.9427C-2.02572 37.2485 0.919086 24.9788 0.187575 22.3605C0.131305 18.2516 8.08414 18.2516 8.02787 22.3605Z" fill="#0D1333"/>
<path d="M18.7004 16.9137C17.8189 19.5511 21.1763 37.4969 15.8307 36.9426C13.7299 37.172 10.8226 36.7706 10.8601 34.0186V16.9328C10.8039 12.8238 18.7567 12.8238 18.7004 16.9328" fill="#FFCB05"/>
<path d="M29.373 8.75313V33.9995C29.373 35.624 28.0788 36.9236 26.5032 36.9236C24.4025 37.1338 21.4952 36.7516 21.5327 33.9995V8.75313C21.4764 4.64414 29.4292 4.64414 29.373 8.75313Z" fill="#008FD5"/>
<path d="M35 9.68957H33.1243V1.91116H25.5091V0H35V9.68957Z" fill="#008FD5"/>
<path d="M32.4791 1.23076L24.2959 9.56885L25.6222 10.9202L33.8054 2.58215L32.4791 1.23076Z" fill="#008FD5"/>
</g>
<defs>
<clipPath id="clip0_1_468">
<rect width="35" height="37" fill="white"/>
</clipPath>
</defs>
</svg>
