<svg width="73" height="65" viewBox="0 0 73 65" fill="none" xmlns="http://www.w3.org/2000/svg">
<g clip-path="url(#clip0_1_477)">
<path d="M44.0054 24.8086L25.8014 42.9697L38.5251 55.6635L56.729 37.5023L44.0054 24.8086Z" fill="#FFCB05"/>
<path d="M29.3198 49.362L0 48.8607V28.4409L29.3198 28.9423V49.362Z" fill="#0D1333"/>
<path d="M73 48.9571L46.6566 52.37V31.9503L73 28.5181V48.9571Z" fill="#FFCB05"/>
<path d="M34.345 64.9999L11.1133 47.1061L29.3198 28.9424L52.8028 52.3701L34.345 64.9999Z" fill="#0D1333"/>
<path d="M44.0087 34.7269H21.0863V27.3033L44.0087 24.8159V34.7269Z" fill="#FFCB05"/>
<path d="M37.9786 13.1311C44.2407 13.1311 49.3431 18.2023 49.3431 24.469H62.5052V18.6072H55.7405C55.4506 17.7395 55.1027 16.8911 54.6968 16.0813L59.4707 11.3186L51.1599 3.02729L46.386 7.78997C45.5743 7.38505 44.7239 7.03797 43.8541 6.74874V0H32.103V6.74874C31.2333 7.03797 30.3828 7.38505 29.5711 7.78997L24.7972 3.02729L16.4864 11.3186L21.2603 16.0813C20.8544 16.8911 20.5065 17.7395 20.2166 18.6072H13.4519V24.469H26.614C26.614 18.2216 31.6971 13.1311 37.9786 13.1311Z" fill="#008FD5"/>
</g>
<defs>
<clipPath id="clip0_1_477">
<rect width="73" height="65" fill="white"/>
</clipPath>
</defs>
</svg>
