<svg width="38" height="29" viewBox="0 0 38 29" fill="none" xmlns="http://www.w3.org/2000/svg">
<g clip-path="url(#clip0_1_458)">
<path d="M35.9311 10.3438C42.6883 4.28805 31.1289 -4.81441 26.6873 3.04681C22.2268 -4.81441 10.6863 4.28805 17.4435 10.3438C19.7023 12.2621 26.6873 17.8289 26.6873 17.8289C26.6873 17.8289 33.6723 12.2809 35.9311 10.3438Z" fill="#008FD5"/>
<path d="M14.9001 12.9204H0V22.0229H14.9001V12.9204Z" fill="#0D1333"/>
<path d="M3.83417 12.9204H0V22.0229H3.83417V12.9204Z" fill="#FFCB05"/>
<path d="M17.1588 29.0002L6.73825 21.0073L14.9191 12.9204L25.4535 23.3582L17.1588 29.0002Z" fill="#0D1333"/>
<path d="M17.1588 28.9999V25.6523L36.3297 19.4272L37.1838 21.7029L25.4535 27.5518L17.1588 28.9999Z" fill="#0D1333"/>
</g>
<defs>
<clipPath id="clip0_1_458">
<rect width="38" height="29" fill="white"/>
</clipPath>
</defs>
</svg>
