<svg width="66" height="59" viewBox="0 0 66 59" fill="none" xmlns="http://www.w3.org/2000/svg">
<g clip-path="url(#clip0_1_95)">
<path d="M66 20.1211L55.1736 52.6575H17.155V20.1211H66Z" fill="#0D1333"/>
<path d="M52.4591 0.761086L44.8996 8.60978C43.8106 9.75141 44.5997 11.6541 46.1779 11.6541H50.802V24.212C50.802 26.1306 52.3486 27.6686 54.2425 27.6686C56.1363 27.6686 57.6829 26.1148 57.6829 24.212V11.6541H62.307C63.8852 11.6541 64.6743 9.75141 63.5854 8.60978L56.01 0.761086C55.0316 -0.253695 53.4218 -0.253695 52.4591 0.761086Z" fill="#008FD5"/>
<path d="M17.7862 52.6575V6.37402H0" stroke="#008FD5" stroke-width="2" stroke-miterlimit="10"/>
<path d="M23.4677 52.6578C23.4677 56.162 20.6428 59.0002 17.1549 59.0002C13.6671 59.0002 10.8422 56.162 10.8422 52.6578C10.8422 49.1536 13.6671 46.3154 17.1549 46.3154C20.6428 46.3154 23.4677 49.1536 23.4677 52.6578Z" fill="#FFCB05"/>
<path d="M61.4864 52.6578C61.4864 56.162 58.6614 59.0002 55.1736 59.0002C51.6858 59.0002 48.8608 56.162 48.8608 52.6578C48.8608 49.1536 51.6858 46.3154 55.1736 46.3154C58.6614 46.3154 61.4864 49.1536 61.4864 52.6578Z" fill="#FFCB05"/>
</g>
<defs>
<clipPath id="clip0_1_95">
<rect width="66" height="59" fill="white"/>
</clipPath>
</defs>
</svg>
