<svg width="52" height="66" viewBox="0 0 52 66" fill="none" xmlns="http://www.w3.org/2000/svg">
<g clip-path="url(#clip0_1_484)">
<path d="M52 12.7311V66H0V0H39.2653" fill="#0D1333"/>
<path d="M47.4075 17.6584H33.2456V3.49854H36.0999V14.8008H47.4075V17.6584Z" fill="#008FD5"/>
<path d="M8.03237 51.1807V60.6328H30.4279C34.4349 35.3355 9.6974 34.6761 8.03237 51.1807ZM19.2301 24.9858C27.5369 24.8759 27.5369 37.7169 19.2301 37.5886C10.9233 37.6986 10.9233 24.8576 19.2301 24.9858Z" fill="#FFCB05"/>
<path d="M22.981 51.1807V60.6328H45.3582C49.3652 35.3355 24.6277 34.6761 22.981 51.1807ZM34.1788 24.9858C42.4856 24.8759 42.4856 37.7169 34.1788 37.5886C25.8719 37.6986 25.8719 24.8576 34.1788 24.9858Z" fill="#008FD5"/>
</g>
<defs>
<clipPath id="clip0_1_484">
<rect width="52" height="66" fill="white"/>
</clipPath>
</defs>
</svg>
