<svg width="57" height="63" viewBox="0 0 57 63" fill="none" xmlns="http://www.w3.org/2000/svg">
<g clip-path="url(#clip0_1_119)">
<path d="M54.0692 11.0725C45.8155 10.4814 38.1003 7.36571 32.2387 2.18894L30.7337 0.798884C30.1317 0.271621 29.3079 0 28.4842 0C27.6604 0 26.8366 0.271621 26.2346 0.798884L24.7296 2.18894C18.8997 7.36571 11.1687 10.4814 2.93079 11.0725C1.28321 11.2004 0 12.3987 0 13.8527V21.8734C0 38.7139 10.3449 54.3721 26.9158 62.6645C27.3594 62.9361 27.9614 63 28.4842 63C29.0069 63 29.5297 62.8722 30.0525 62.6645C46.6234 54.3721 56.9683 38.7299 56.9683 21.8734V13.8527C56.9683 12.3987 55.6851 11.2004 54.0375 11.0725" fill="#0D1333"/>
<path d="M48.065 15.8656C41.7599 15.4023 35.8508 13.0216 31.3674 9.07512L30.2268 8.00461C29.7674 7.60517 29.1337 7.39746 28.5 7.39746C27.8663 7.39746 27.2326 7.60517 26.7732 8.00461L25.6326 9.07512C21.1651 13.0376 15.2401 15.4183 8.93497 15.8656C7.6676 15.9615 6.70123 16.8882 6.70123 17.9907V24.1261C6.70123 37.0201 14.6223 48.9874 27.296 55.3305C27.6445 55.5382 28.104 55.5861 28.5 55.5861C28.8961 55.5861 29.308 55.4903 29.704 55.3305C42.3777 48.9874 50.2988 37.0201 50.2988 24.1261V17.9907C50.2988 16.8722 49.3324 15.9615 48.065 15.8656Z" fill="#008FD5"/>
<path d="M28.1356 18.1187L32.2863 25.5643L41.5698 26.7626L34.8527 32.5465L36.4369 40.7271L28.1356 36.8605L19.8344 40.7271L21.4186 32.5465L14.7015 26.7626L23.985 25.5643L28.1356 18.1187Z" fill="#FFCB05"/>
</g>
<defs>
<clipPath id="clip0_1_119">
<rect width="57" height="63" fill="white"/>
</clipPath>
</defs>
</svg>
