<svg width="36" height="35" viewBox="0 0 36 35" fill="none" xmlns="http://www.w3.org/2000/svg">
<g clip-path="url(#clip0_1_452)">
<path d="M36 17.4907C36.3373 40.8241 -0.337314 40.8241 0.0187504 17.4907C-0.318574 -5.84261 36.3561 -5.84261 36 17.4907Z" fill="#0D1333"/>
<path d="M27.1546 17.4904C27.3233 29.3631 8.65801 29.3631 8.82667 17.4904C8.65801 5.61777 27.3233 5.61777 27.1546 17.4904Z" fill="#FFCB05"/>
<path d="M21.3264 17.4905C21.3826 21.8163 14.5986 21.8163 14.6549 17.4905C14.5986 13.1646 21.3826 13.1646 21.3264 17.4905Z" fill="#0D1333"/>
<path d="M20.202 6.83545H21.8886V13.6894H28.7475V15.3748H20.202V6.83545Z" fill="#008FD5"/>
<path d="M28.6509 5.75144L21.2964 13.1006L22.489 14.2923L29.8435 6.9432L28.6509 5.75144Z" fill="#008FD5"/>
</g>
<defs>
<clipPath id="clip0_1_452">
<rect width="36" height="35" fill="white"/>
</clipPath>
</defs>
</svg>
